HIERARCHY
ROOT Hips
{
	OFFSET 0.000000 103.266502 0.000000
	CHANNELS 6 Xposition Yposition Zposition Xrotation Yrotation Zrotation 
	JOINT Spine
	{
		OFFSET -0.002400 12.777504 0.315300
		CHANNELS 3 Xrotation Yrotation Zrotation
		JOINT Spine1
		{
			OFFSET -0.002067 5.816869 0.032633
			CHANNELS 3 Xrotation Yrotation Zrotation
			JOINT Spine1_split
			{
				OFFSET -0.002067 5.816869 0.032633
				CHANNELS 3 Xrotation Yrotation Zrotation
				JOINT Spine2
				{
					OFFSET -0.002067 5.816869 0.032633
					CHANNELS 3 Xrotation Yrotation Zrotation
					JOINT Neck
					{
						OFFSET -0.003700 21.199493 -0.826900
						CHANNELS 3 Xrotation Yrotation Zrotation
						JOINT Head
						{
							OFFSET 0.000000 20.442200 4.834800
							CHANNELS 3 Xrotation Yrotation Zrotation
							JOINT HeadTop_End
							{
								OFFSET 0.000000 34.668396 4.968400
								CHANNELS 3 Xrotation Yrotation Zrotation
								End Site
								{
									OFFSET 0.000000 0.000000 0.000000
								}
							}
						}
					}
					JOINT LeftShoulder
					{
						OFFSET 3.288150 8.794197 -1.372250
						CHANNELS 3 Xrotation Yrotation Zrotation
						JOINT LeftShoulder_split
						{
							OFFSET 3.288150 8.794197 -1.372250
							CHANNELS 3 Xrotation Yrotation Zrotation
							JOINT LeftArm
							{
								OFFSET 11.953299 -2.279007 -0.146200
								CHANNELS 3 Xrotation Yrotation Zrotation
								JOINT LeftForeArm
								{
									OFFSET 18.448900 0.000000 0.000000
									CHANNELS 3 Xrotation Yrotation Zrotation
									JOINT LeftHand
									{
										OFFSET 29.527798 0.000000 0.000000
										CHANNELS 3 Xrotation Yrotation Zrotation
										JOINT LeftHandThumb1
										{
											OFFSET 10.739754 -2.369614 9.225399
											CHANNELS 3 Xrotation Yrotation Zrotation
											JOINT LeftHandThumb2
											{
												OFFSET 4.926170 -2.844131 2.844125
												CHANNELS 3 Xrotation Yrotation Zrotation
												JOINT LeftHandThumb3
												{
													OFFSET 4.614891 -2.664413 2.664409
													CHANNELS 3 Xrotation Yrotation Zrotation
													JOINT LeftHandThumb4
													{
														OFFSET 4.432465 -2.559082 2.559083
														CHANNELS 3 Xrotation Yrotation Zrotation
														End Site
														{
															OFFSET 0.000000 0.000000 0.000000
														}
													}
												}
											}
										}
										JOINT LeftHandIndex1
										{
											OFFSET 26.467674 0.187653 6.405298
											CHANNELS 3 Xrotation Yrotation Zrotation
											JOINT LeftHandIndex2
											{
												OFFSET 8.792900 0.000000 0.000000
												CHANNELS 3 Xrotation Yrotation Zrotation
												JOINT LeftHandIndex3
												{
													OFFSET 10.075203 0.000000 0.000000
													CHANNELS 3 Xrotation Yrotation Zrotation
													End Site
													{
														OFFSET 0.000000 0.000000 0.000000
													}
												}
											}
										}
										JOINT LeftHandMiddle1
										{
											OFFSET 25.764404 0.000000 0.000000
											CHANNELS 3 Xrotation Yrotation Zrotation
											JOINT LeftHandMiddle2
											{
												OFFSET 9.393974 0.000000 0.000000
												CHANNELS 3 Xrotation Yrotation Zrotation
												JOINT LeftHandMiddle3
												{
													OFFSET 10.771950 0.000000 0.000000
													CHANNELS 3 Xrotation Yrotation Zrotation
													End Site
													{
														OFFSET 0.000000 0.000000 0.000000
													}
												}
											}
										}
										JOINT LeftHandRing1
										{
											OFFSET 24.660927 0.144547 -6.225808
											CHANNELS 3 Xrotation Yrotation Zrotation
											JOINT LeftHandRing2
											{
												OFFSET 9.393799 0.000000 0.000000
												CHANNELS 3 Xrotation Yrotation Zrotation
												JOINT LeftHandRing3
												{
													OFFSET 9.928497 0.000000 0.000000
													CHANNELS 3 Xrotation Yrotation Zrotation
													End Site
													{
														OFFSET 0.000000 0.000000 0.000000
													}
												}
											}
										}
										JOINT LeftHandPinky1
										{
											OFFSET 23.655350 0.125290 -12.815412
											CHANNELS 3 Xrotation Yrotation Zrotation
											JOINT LeftHandPinky2
											{
												OFFSET 8.425102 0.000000 0.000000
												CHANNELS 3 Xrotation Yrotation Zrotation
												JOINT LeftHandPinky3
												{
													OFFSET 8.147003 0.000000 0.000000
													CHANNELS 3 Xrotation Yrotation Zrotation
													End Site
													{
														OFFSET 0.000000 0.000000 0.000000
													}
												}
											}
										}
									}
								}
							}
						}
					}
					JOINT RightShoulder
					{
						OFFSET -3.249400 8.794197 -1.372250
						CHANNELS 3 Xrotation Yrotation Zrotation
						JOINT RightShoulder_split
						{
							OFFSET -3.249400 8.794197 -1.372250
							CHANNELS 3 Xrotation Yrotation Zrotation
							JOINT RightArm
							{
								OFFSET -11.953299 -2.279007 -0.146200
								CHANNELS 3 Xrotation Yrotation Zrotation
								JOINT RightForeArm
								{
									OFFSET -18.448900 0.000000 0.000000
									CHANNELS 3 Xrotation Yrotation Zrotation
									JOINT RightHand
									{
										OFFSET -29.527802 0.000000 0.000000
										CHANNELS 3 Xrotation Yrotation Zrotation
										JOINT RightHandThumb1
										{
											OFFSET -10.739754 -2.369614 9.225399
											CHANNELS 3 Xrotation Yrotation Zrotation
											JOINT RightHandThumb2
											{
												OFFSET -4.926170 -2.844131 2.844125
												CHANNELS 3 Xrotation Yrotation Zrotation
												JOINT RightHandThumb3
												{
													OFFSET -4.614891 -2.664413 2.664409
													CHANNELS 3 Xrotation Yrotation Zrotation
													JOINT RightHandThumb4
													{
														OFFSET -4.432465 -2.559082 2.559083
														CHANNELS 3 Xrotation Yrotation Zrotation
														End Site
														{
															OFFSET 0.000000 0.000000 0.000000
														}
													}
												}
											}
										}
										JOINT RightHandIndex1
										{
											OFFSET -26.467674 0.187653 6.405298
											CHANNELS 3 Xrotation Yrotation Zrotation
											JOINT RightHandIndex2
											{
												OFFSET -8.792900 0.000000 0.000000
												CHANNELS 3 Xrotation Yrotation Zrotation
												JOINT RightHandIndex3
												{
													OFFSET -10.075203 0.000000 0.000000
													CHANNELS 3 Xrotation Yrotation Zrotation
													End Site
													{
														OFFSET 0.000000 0.000000 0.000000
													}
												}
											}
										}
										JOINT RightHandMiddle1
										{
											OFFSET -25.764404 0.000000 0.000000
											CHANNELS 3 Xrotation Yrotation Zrotation
											JOINT RightHandMiddle2
											{
												OFFSET -9.393974 0.000000 0.000000
												CHANNELS 3 Xrotation Yrotation Zrotation
												JOINT RightHandMiddle3
												{
													OFFSET -10.771950 0.000000 0.000000
													CHANNELS 3 Xrotation Yrotation Zrotation
													End Site
													{
														OFFSET 0.000000 0.000000 0.000000
													}
												}
											}
										}
										JOINT RightHandRing1
										{
											OFFSET -24.660927 0.144547 -6.225808
											CHANNELS 3 Xrotation Yrotation Zrotation
											JOINT RightHandRing2
											{
												OFFSET -9.393799 0.000000 0.000000
												CHANNELS 3 Xrotation Yrotation Zrotation
												JOINT RightHandRing3
												{
													OFFSET -9.928497 0.000000 0.000000
													CHANNELS 3 Xrotation Yrotation Zrotation
													End Site
													{
														OFFSET 0.000000 0.000000 0.000000
													}
												}
											}
										}
										JOINT RightHandPinky1
										{
											OFFSET -23.655350 0.125290 -12.815412
											CHANNELS 3 Xrotation Yrotation Zrotation
											JOINT RightHandPinky2
											{
												OFFSET -8.425102 0.000000 0.000000
												CHANNELS 3 Xrotation Yrotation Zrotation
												JOINT RightHandPinky3
												{
													OFFSET -8.147003 0.000000 0.000000
													CHANNELS 3 Xrotation Yrotation Zrotation
													End Site
													{
														OFFSET 0.000000 0.000000 0.000000
													}
												}
											}
										}
									}
								}
							}
						}
					}
				}
			}
		}
	}
	JOINT LeftUpLeg
	{
		OFFSET 11.394100 -6.187798 -0.413800
		CHANNELS 3 Xrotation Yrotation Zrotation
		JOINT LeftLeg
		{
			OFFSET 0.430247 -32.302673 3.732800
			CHANNELS 3 Xrotation Yrotation Zrotation
			JOINT LeftFoot
			{
				OFFSET -0.430247 -48.264931 -6.423300
				CHANNELS 3 Xrotation Yrotation Zrotation
				JOINT LeftToeBase
				{
					OFFSET 4.230900 -16.068199 23.438400
					CHANNELS 3 Xrotation Yrotation Zrotation
					JOINT LeftToe_End
					{
						OFFSET 4.510700 0.695400 19.974600
						CHANNELS 3 Xrotation Yrotation Zrotation
						End Site
						{
							OFFSET 0.000000 0.000000 0.000000
						}
					}
				}
			}
		}
	}
	JOINT RightUpLeg
	{
		OFFSET -11.333700 -6.187798 -0.413800
		CHANNELS 3 Xrotation Yrotation Zrotation
		JOINT RightLeg
		{
			OFFSET -0.430392 -32.302628 3.733000
			CHANNELS 3 Xrotation Yrotation Zrotation
			JOINT RightFoot
			{
				OFFSET 0.430392 -48.264973 -6.423500
				CHANNELS 3 Xrotation Yrotation Zrotation
				JOINT RightToeBase
				{
					OFFSET -4.230900 -16.068199 23.438400
					CHANNELS 3 Xrotation Yrotation Zrotation
					JOINT RightToe_End
					{
						OFFSET -4.510700 0.695400 19.974600
						CHANNELS 3 Xrotation Yrotation Zrotation
						End Site
						{
							OFFSET 0.000000 0.000000 0.000000
						}
					}
				}
			}
		}
	}
}
MOTION
Frames: 4
Frame Time: 0.016667
-0.094848 87.719887 -1.030972 -14.105916 4.530661 -0.297358 20.019296 -0.022329 0.781068 6.967088 -0.338070 0.675294 0.000000 0.000000 0.000000 6.967313 -0.337866 0.674353 -12.249458 -1.248218 -0.495995 -16.116730 -1.754206 -0.002254 0.000001 -0.000000 0.000000 3.082220 -9.945120 -6.811324 0.000000 0.000000 0.000000 -13.959271 -7.908215 -60.295278 69.634339 -63.509093 71.597137 17.167882 -2.491243 -13.648305 2.689277 3.159881 6.593329 -0.080955 21.143658 -2.539995 0.000005 0.000022 0.000013 -0.000003 0.000000 0.000001 -10.621159 2.937291 -19.267718 1.669099 6.188702 -21.755671 -0.000001 0.000000 -0.000002 -13.823033 9.936955 -22.469212 6.048994 4.246408 -31.221963 0.000000 0.000002 0.000001 -10.744681 8.325270 -36.571083 3.038163 0.221618 -39.078702 0.000001 -0.000001 -0.000000 -11.942415 9.095567 -39.265467 4.640667 -6.164097 -45.289304 -0.000000 -0.000002 0.000002 8.709541 -2.418524 18.823142 0.000000 0.000000 0.000000 -21.494479 12.934332 56.855509 76.344105 65.516985 -70.724560 6.443772 -2.140698 3.545009 2.694450 -3.160172 -6.583870 -0.079184 -21.146004 2.540865 -0.000000 -0.000009 -0.000002 -0.000001 0.000001 -0.000003 -10.621201 -2.937103 19.269089 1.668970 -6.188776 21.755273 -0.000000 -0.000003 0.000001 -13.688461 -10.244148 24.164207 6.044758 -4.250355 31.223349 -0.000001 -0.000004 0.000001 -10.744594 -8.325830 36.570004 3.042374 -0.220454 39.078757 -0.000001 -0.000002 -0.000001 -11.872846 -9.179257 39.251984 4.640924 6.162610 45.288833 -0.000001 0.000004 0.000001 -25.032413 -3.958056 14.212367 57.686651 0.162745 0.432407 -17.972410 -2.016469 -12.543734 -0.000037 0.000000 -0.000003 -0.000000 0.000001 0.000000 -21.067725 -7.911022 -16.943498 57.213315 -0.422742 -0.460136 -20.835166 -3.273320 11.293799 -0.000077 0.000002 0.000002 0.000000 0.000000 -0.000000 
-0.088261 87.716217 -1.033161 -14.083117 4.543549 -0.308476 20.019274 -0.022148 0.782137 6.967165 -0.337050 0.675000 0.000000 0.000000 0.000000 6.967386 -0.336798 0.673819 -12.274433 -1.249902 -0.501452 -16.104611 -1.759239 0.008366 0.000000 0.000000 -0.000000 3.081945 -9.940217 -6.846195 0.000000 0.000000 0.000000 -13.919025 -8.007094 -60.186561 69.508363 -63.495242 71.476140 17.165983 -2.496277 -13.676332 2.740404 3.355886 6.651969 -0.304247 20.508172 -2.520039 0.000002 0.000023 0.000013 -0.000000 0.000000 -0.000000 -10.843750 2.408692 -18.034235 1.583732 5.984708 -20.446038 0.000001 -0.000002 -0.000000 -13.988349 9.479592 -21.637645 5.872549 4.134125 -30.142940 -0.000001 0.000002 0.000001 -10.745591 7.991150 -35.808226 2.902347 0.024358 -37.900887 -0.000000 0.000001 0.000000 -11.884762 8.825197 -38.571755 4.536610 -6.270406 -44.699060 -0.000000 0.000000 -0.000000 8.719990 -2.431947 18.863523 0.000000 0.000000 0.000000 -21.419390 13.027297 56.754125 76.284047 65.521561 -70.684296 6.443164 -2.129466 3.550595 2.691622 -3.150282 -6.581375 -0.140279 -20.912590 2.443744 0.000001 -0.000009 -0.000003 -0.000000 -0.000000 -0.000000 -10.723849 -2.678724 18.376238 1.607987 -6.040017 20.834100 0.000001 -0.000002 0.000001 -13.789857 -9.992678 23.322244 5.930031 -4.112805 30.347685 -0.000001 -0.000003 -0.000000 -10.804185 -8.106039 35.619488 2.942608 -0.098408 38.315838 -0.000000 0.000000 0.000001 -11.920085 -8.998291 38.400430 4.514703 6.278562 44.542672 -0.000001 0.000002 0.000000 -25.079131 -3.949082 14.225857 57.705345 0.114267 0.432146 -17.972700 -2.001185 -12.518810 -0.000037 -0.000001 -0.000003 -0.000000 0.000000 -0.000000 -21.092247 -7.919435 -16.940544 57.215282 -0.421465 -0.460134 -20.832509 -3.278918 11.297559 -0.000077 0.000002 0.000002 0.000000 0.000000 -0.000000 
-0.072592 87.710709 -1.036451 -14.048055 4.576487 -0.326515 20.019320 -0.021826 0.784100 6.967765 -0.333987 0.674075 0.000000 0.000000 0.000000 6.967979 -0.333705 0.672075 -12.339807 -1.259015 -0.511593 -16.061069 -1.772782 0.024099 -0.000001 -0.000000 0.000000 3.081511 -9.932724 -6.899785 0.000000 0.000000 0.000000 -13.772137 -8.303074 -59.856602 69.210553 -63.491185 71.193671 17.161969 -2.546415 -13.762113 2.843740 3.755988 6.771124 -0.770445 19.209939 -2.488544 0.000003 0.000024 0.000011 -0.000001 -0.000002 0.000002 -11.271547 1.302792 -15.505457 1.424461 5.551983 -17.730251 0.000001 0.000002 -0.000000 -14.321372 8.535472 -19.931537 5.513423 3.887935 -27.908894 0.000001 -0.000001 0.000001 -10.734834 7.300041 -34.231785 2.630243 -0.392174 -35.470716 0.000000 -0.000004 0.000001 -11.758233 8.260806 -37.125271 4.322558 -6.494806 -43.471917 0.000000 0.000002 0.000004 8.739788 -2.465331 18.929306 0.000000 0.000000 0.000000 -21.199623 13.256775 56.475586 76.163931 65.580341 -70.597382 6.440258 -2.094182 3.595616 2.684937 -3.126746 -6.575413 -0.271207 -20.426818 2.250012 0.000004 -0.000009 -0.000004 -0.000000 -0.000000 -0.000000 -10.925255 -2.140292 16.541893 1.491014 -5.724732 18.914787 0.000003 -0.000003 0.000001 -13.991210 -9.467899 21.606999 5.700132 -3.821558 28.537070 -0.000001 0.000000 0.000000 -10.911731 -7.639106 33.676709 2.742883 0.160245 36.738488 0.000000 -0.000001 -0.000000 -12.003666 -8.605886 36.648965 4.261009 6.522144 43.011033 0.000000 -0.000001 -0.000001 -25.158749 -3.936025 14.244231 57.738813 0.026895 0.431547 -17.973067 -1.977458 -12.470219 -0.000037 -0.000001 -0.000003 0.000000 -0.000000 -0.000000 -21.123926 -7.939893 -16.940215 57.213093 -0.421293 -0.460119 -20.827455 -3.290549 11.308908 -0.000077 0.000002 0.000002 0.000000 0.000000 0.000000 
-0.052396 87.709938 -1.032139 -14.041754 4.621499 -0.330634 20.019686 -0.021857 0.784418 6.970450 -0.329654 0.671555 0.000000 0.000000 0.000000 6.970665 -0.329433 0.668393 -12.447033 -1.280076 -0.519118 -15.961775 -1.792115 0.025987 0.000000 -0.000000 0.000000 3.083199 -9.935518 -6.902660 0.000000 0.000000 0.000000 -13.503008 -8.789853 -59.312379 68.869747 -63.545935 70.887187 17.160121 -2.676763 -13.924307 2.936500 4.117314 6.878269 -1.207029 18.029218 -2.472049 0.000006 0.000025 0.000012 -0.000002 -0.000001 0.000002 -11.627914 0.244294 -13.176305 1.292628 5.132278 -15.152095 0.000001 0.000001 0.000001 -14.610808 7.654081 -18.356436 5.188260 3.625280 -25.799317 0.000001 0.000000 0.000000 -10.691626 6.650393 -32.754592 2.397522 -0.806229 -33.196239 0.000000 0.000000 -0.000000 -11.617390 7.716407 -35.737729 4.124023 -6.717358 -42.299262 0.000001 0.000001 0.000001 8.752994 -2.509402 18.951115 0.000000 0.000000 0.000000 -20.864452 13.561954 56.069289 76.084360 65.725722 -70.530391 6.436101 -2.033729 3.726631 2.676285 -3.096387 -6.567717 -0.405713 -19.962999 2.085438 0.000002 -0.000012 -0.000003 -0.000001 -0.000003 0.000002 -11.113378 -1.627060 14.850571 1.387887 -5.417890 17.068571 0.000001 -0.000001 -0.000001 -14.172679 -8.971355 20.058905 5.490060 -3.541214 26.833387 -0.000001 -0.000000 -0.000002 -10.985409 -7.177308 31.907741 2.563243 0.413049 35.256129 0.000000 -0.000004 -0.000000 -12.051316 -8.201143 35.024414 4.032082 6.755004 41.602928 0.000001 0.000002 -0.000000 -25.190103 -3.940839 14.234662 57.758176 -0.016817 0.431041 -17.976909 -1.973607 -12.435329 -0.000037 -0.000000 -0.000003 0.000000 0.000001 0.000000 -21.108804 -7.967375 -16.957237 57.196810 -0.425550 -0.460075 -20.826958 -3.299821 11.329142 -0.000077 0.000002 0.000002 0.000000 -0.000000 -0.000000 
